<svg id="Layer_1" data-name="Layer 1" xmlns="http://www.w3.org/2000/svg" viewBox="0 0 399.35 262.43"><defs><style>.cls-1{fill:#2e3192;}.cls-2{fill:#fcd205;}.cls-3{fill:#fff;}.cls-4{fill:#e11d3c;}</style></defs><polygon class="cls-1" points="116.91 196.37 112.69 196.37 112.69 216.32 123.22 216.32 123.22 213.28 116.91 213.28 116.91 196.37"/><path class="cls-1" d="M128.46,196.37l-4.82,19.95h4.22l1.12-5.39h3.39l1.15,5.39h4.26l-4.89-19.95Zm1.11,11.71,1.08-5.25,1.13,5.25Z"/><polygon class="cls-1" points="147.59 207.28 143.03 196.37 138.9 196.37 138.9 216.32 142.9 216.32 142.9 205.39 147.46 216.32 151.59 216.32 151.59 196.37 147.59 196.37 147.59 207.28"/><path class="cls-1" d="M154,196.37v19.95h10.14l1.92-1.46v-17l-1.92-1.46Zm4.21,16.91V199.41h3.63v13.87Z"/><rect class="cls-1" x="167.77" y="204.65" width="8.73" height="3.04"/><polygon class="cls-1" points="180.12 196.37 178.2 197.83 178.2 206.23 180.12 207.69 186.6 207.69 186.6 213.28 182.42 213.28 182.42 209.97 178.2 209.97 178.2 214.86 180.12 216.32 188.9 216.32 190.82 214.86 190.82 206.11 188.9 204.65 182.42 204.65 182.42 199.41 186.6 199.41 186.6 202.72 190.82 202.72 190.82 197.83 188.9 196.37 180.12 196.37"/><polygon class="cls-1" points="193.27 216.32 204.02 216.32 204.02 213.28 197.49 213.28 197.49 207.71 202.53 207.71 202.53 204.69 197.49 204.69 197.49 199.41 204.02 199.41 204.02 196.37 193.27 196.37 193.27 216.32"/><path class="cls-1" d="M209.17,196.37l-4.83,19.95h4.23l1.12-5.39h3.39l1.15,5.39h4.26l-4.9-19.95Zm1.1,11.71,1.09-5.25,1.13,5.25Z"/><rect class="cls-1" x="218.34" y="204.65" width="8.73" height="3.04"/><polygon class="cls-1" points="237.14 204.65 232.95 204.65 232.95 196.37 228.8 196.37 228.8 216.32 232.95 216.32 232.95 207.66 237.14 207.66 237.14 216.32 241.33 216.32 241.33 196.37 237.14 196.37 237.14 204.65"/><path class="cls-1" d="M245.7,196.37l-1.92,1.46v17l1.92,1.46h8.78l1.92-1.46v-17l-1.92-1.46ZM248,213.28V199.41h4.19v13.87Z"/><polygon class="cls-1" points="266.18 203.64 262.9 196.37 258.88 196.37 258.88 216.32 263.03 216.32 263.03 205.04 265.52 210.12 265.71 210.46 266.66 210.46 269.31 205.04 269.31 216.32 273.46 216.32 273.46 196.37 269.44 196.37 266.18 203.64"/><polygon class="cls-1" points="286.67 199.41 286.67 196.37 275.91 196.37 275.91 216.32 286.67 216.32 286.67 213.28 280.13 213.28 280.13 207.71 285.17 207.71 285.17 204.69 280.13 204.69 280.13 199.41 286.67 199.41"/><path class="cls-1" d="M311.86,69.26a132,132,0,0,0-224.37,0H30.32V83.89H369V69.26Z"/><path class="cls-2" d="M329.56,149.76H69.79a130.05,130.05,0,0,0,12,39.16H317.53A130.05,130.05,0,0,0,329.56,149.76Z"/><path class="cls-1" d="M199.68,262.43a130.69,130.69,0,0,0,89-34.86H110.64A130.7,130.7,0,0,0,199.68,262.43Z"/><polygon class="cls-3" points="176.78 68.64 199.68 0 222.57 68.64 294.92 69.2 236.71 112.18 258.54 181.16 199.68 139.09 140.81 181.16 162.64 112.18 104.43 69.2 176.78 68.64"/><path class="cls-4" d="M13.55,119.36C11.23,110.25,8.93,101,6.69,91.89l-.24-1L0,91V144.7l6.24-.87v-29c2.28,9.12,4.58,18.18,6.86,27l.27,1,6.4-.83,0-51.17-6.24.06Z"/><path class="cls-4" d="M61,90.76h0l-6.3,0-.25.9q-2,7-3.91,14.07-1.89-6.94-3.78-14l-.25-.93-6.85,0,.55,1.87q3.18,11,6.37,21.6-3.36,11.5-6.7,23.37L39.52,139v-7l-1.14.11-9,.95,0-13.7,7.87-.51v-7.64l-7.87.42,0-13,10.2-.15,0-7.67-16.8.05-.06,50.81,1.16-.15q7.32-.9,14.65-1.74l1-.11h0l6.72-.74.22-.86q2-7.8,4.06-15.47,2,7.29,4,14.45l.28,1,6.93-.69-.58-1.78Q57.75,125,54.33,114.1q3.35-10.81,6.7-21.3l0,5.39,6.37-.07-.09,38.7,6.58-.6L74,98,80.34,98V92.11l0-1.4Z"/><path class="cls-4" d="M92.4,90.69l-.12,44,1.12-.08q7.17-.54,14.34-1l.35,0,3-3.31.1-36.48-3.07-3.16Zm6.49,36.43L99,97.78l5.67,0-.08,29Z"/><path class="cls-4" d="M117.3,90.64l-3.08,3.15-.09,36.26,3.11,3,.37,0q6.42-.37,12.84-.69h.35l3.06-3.19.08-35.44-3.08-3.08Zm3.43,35.25.07-28.29,6.54,0-.06,28Z"/><path class="cls-4" d="M140.07,90.61,137,93.68,136.91,129l3.11,3h.36q6.42-.27,12.84-.48h.35l3.07-3.09.05-34.71-3.08-3Zm3.44,34.31.05-27.46,6.54,0,0,27.27Z"/><path class="cls-4" d="M174.48,114.79h.9l3.09-3V93.57l-3.09-3h-15.6l-.06,40.63,6.5-.17,0-16.16,1.46,0q2.91,7.65,5.82,15.25l.3.78,7.11-.12-.81-2Q177.31,121.8,174.48,114.79ZM171.84,97.3v10.81l-5.57.06V97.32Z"/><path class="cls-4" d="M204.72,90.58v33.35c-2,0-4,0-6,0V90.58h-6.58v37.13l3.1,3h.34q6.16,0,12.31,0h.35l3.1-3,0-37.15Z"/><path class="cls-4" d="M229.7,90.59H214.3l0,40.16,6.6.08V115.51q4.23,0,8.46.09h.35l3.1-3,0-19.06Zm-3.47,18.3-5.33,0V97.34h5.33Z"/><path class="cls-4" d="M248.39,90.6l0,16.68-6.55-.09,0-16.59h-6.49l0,40.52,6.5.18,0-17.35,6.55.12,0,17.44,6.54.24-.07-41.13Z"/><path class="cls-4" d="M274.61,90.63H261.05l-3.08,3,.08,35.16,3.06,3.16h.35q6.42.28,12.84.62l.37,0,3.11-3-.09-35.9Zm-3.44,34.91-6.54-.29-.06-27.74,6.54,0Z"/><path class="cls-4" d="M296.27,126.86q-4.42-.27-8.87-.51l-.09-35.7h-6.59l.11,42.33,1,.06q7.17.42,14.34.9l1.12.08,0-7.09Z"/><path class="cls-4" d="M315.1,109h-.37l-9.72-.34,0-10.85,6.54.07,0,7.27,6.59.17,0-11.31L315,90.7l-13.58,0-3.06,3.21.05,18.47,3.05,3.3.36,0,9.72.4,0,11.79-6.54-.45,0-7.19-6.59-.35,0,11.05,3,3.37.36,0q6.42.46,12.83,1l.39,0,3.11-3.11-.05-19.82Z"/><polygon class="cls-4" points="338.85 90.76 319.53 90.71 319.55 97.97 325.92 98.04 326.01 136.27 332.6 136.87 332.5 98.12 338.87 98.2 338.85 90.76"/><path class="cls-4" d="M356.19,131.64c-3.07-.3-6.15-.6-9.22-.88l0-12.83,6.76.4,1.11.07,0-7.55-7.87-.38,0-12.16,10.21.14,0-7.64-16.8,0,.11,46.86,1,.1q7.33.74,14.66,1.54l1.15.13v-7.65Z"/><path class="cls-4" d="M373.72,120.88l1.06.07,3.05-3.57,0-22.77-3-3.74-15.68-.05.09,48.79,6.48.74,0-20,1.36.09q3,9.88,5.89,20l.24.81,7.07.88-.63-2.11Q376.66,130.32,373.72,120.88ZM371.2,113l-5.56-.32,0-14.11,5.57.08Z"/><path class="cls-4" d="M399.35,91l-6.85,0L392.3,92q-1.86,9.93-3.71,19.66-1.86-9.95-3.71-19.7l-.2-1-6.93,0,.42,1.8q3.58,15.45,7.17,31.46v18.66l6.49.87V124.52q3.56-15.6,7.13-31.8Z"/></svg>